<svg version="1.2" xmlns="http://www.w3.org/2000/svg" viewBox="0 0 913 208" width="913" height="208">
	<title>logo_wide-svg</title>
	<style>
		.s0 { fill: #ffffff } 
		.s1 { fill: #d55500 } 
	</style>
	<g id="Page-1">
		<g id="Vector-file">
			<g id="Group">
				<path id="Fill-6" class="s0" d="m78 154v30l-77-45.3v-89.7l25.4 15.3v59.4z"/>
				<path id="Fill-7" class="s1" d="m157 46.7v91.3l-25.6-15.1v-61.2l-51.8-30.5-51.6 30.4v-30.1l51.6-30.5z"/>
				<path id="Fill-8" class="s1" d="m171 161l-46.2 6-36.8-56z"/>
				<path id="Fill-9" class="s0" d="m125 166.1l-24.8 40.9-12-96h0.1l-0.3-2z"/>
				<path id="Fill-10" class="s1" d="m77.5 55l-33.5 19.2v38.5l33.5 19.3v-14.6l-20.8-11.9v-24l20.8-11.9 20.8 11.9v23.9l12.5 7.5 0.2-0.2v-38.5z"/>
				<g id="LinkClicks">
					<path id="Link" class="s0" d="m279.6 142.4v-15.2h-50.6v-81.3h-18v96.5zm21.2-85.7q4.9 0 8-3.1 3-3.1 3-7.7 0-4.3-3.1-7.1-3.1-2.8-7.9-2.8-4.9 0-8 3-3.1 2.9-3.1 7.3 0 4.3 3.1 7.3 3.1 3.1 8 3.1zm8.5 85.7v-73.6h-17.2v73.6zm39.8 0v-37.2q0-7.5 2.5-12.4 2.6-4.8 7.3-7.3 4.7-2.5 10.8-2.5 8.3 0 12.9 4.8 4.6 4.8 4.6 14.6v40h17.3v-42.2q0-11.1-4-18.2-4-7.1-11-10.6-7-3.4-15.8-3.4-9.7 0-17.1 3.8-4.7 2.4-7.9 6l-0.5 0.5v-9.5h-16.4v73.6zm94.5 0v-19.4l12.9-12.1 25.6 31.5h21l-33.7-42.8 30.8-30.8h-20.8l-35.8 33v-61.7h-17.2v102.3z"/>
					<path id="Clicks" class="s1" d="m560.6 143.8q12 0 21.8-4.2 9.8-4.1 16.6-12l-11.6-11q-5.3 5.8-11.8 8.6-6.4 2.9-14 2.9-7.6 0-13.9-2.5-6.3-2.5-11-7.1-4.6-4.5-7.1-10.7-2.6-6.2-2.6-13.6 0-7.5 2.6-13.7 2.5-6.2 7.1-10.7 4.7-4.6 11-7.1 6.3-2.4 13.9-2.4 7.6 0 14 2.8 6.5 2.8 11.8 8.5l11.6-10.9q-6.8-8-16.6-12.1-9.8-4.1-21.7-4.1-11.2 0-20.6 3.7-9.4 3.6-16.4 10.3-7.1 6.7-10.9 15.8-3.9 9.1-3.9 19.9 0 10.7 3.9 19.8 3.8 9.1 10.8 15.8 7 6.7 16.5 10.3 9.4 3.7 20.5 3.7zm71.2-1.4v-102.3h-17.3v102.3zm31.2-85.7q5 0 8.1-3.1 3-3.1 3-7.7 0-4.3-3.1-7.1-3.1-2.8-8-2.8-4.8 0-7.9 3-3.1 2.9-3.1 7.3 0 4.3 3.1 7.3 3.1 3.1 7.9 3.1zm8.6 85.7v-73.6h-17.3v73.6zm56.4 0.9q10.8 0 19-4.4 8.3-4.5 12.6-12.8l-13.3-7.7q-3.3 5.2-8.1 7.7-4.8 2.5-10.3 2.5-6.4 0-11.5-2.8-5.1-2.7-8-7.9-2.9-5.1-2.9-12.3 0-7.2 2.9-12.3 2.9-5.2 8-8 5.1-2.7 11.5-2.7 5.5 0 10.3 2.5 4.8 2.4 8.1 7.7l13.3-7.7q-4.3-8.4-12.6-12.8-8.2-4.3-19-4.3-11.6 0-20.6 4.8-9.1 4.8-14.2 13.3-5.1 8.5-5.1 19.5 0 10.9 5.1 19.4 5.1 8.6 14.2 13.5 9 4.8 20.6 4.8zm61.8-0.9v-19.4l12.9-12.1 25.6 31.5h21l-33.7-42.8 30.8-30.8h-20.8l-35.8 33v-61.7h-17.2v102.3zm88.7 0.9q10.4 0 17.8-2.8 7.5-2.8 11.6-7.9 4-5.1 4-12 0-6.2-2.4-10-2.5-3.9-6.6-6-4.1-2.2-8.9-3.4-4.9-1.3-9.8-1.9-4.9-0.6-8.9-1.6-4-0.9-6.5-2.6-2.5-1.6-2.5-4.9 0-3.6 3.8-6 3.8-2.3 11.7-2.3 5.3 0 10.6 1.2 5.3 1.1 10.6 4.3l6.6-13.1q-5-3-12.6-4.7-7.6-1.6-15-1.6-10 0-17.3 2.8-7.2 2.8-11.2 8-4 5.2-4 12.2 0 6.3 2.5 10.2 2.5 3.8 6.5 6.1 4 2.3 8.9 3.5 4.9 1.1 9.8 1.8 4.9 0.7 8.9 1.5 4 0.9 6.5 2.4 2.5 1.6 2.5 4.7 0 3.7-3.7 5.9-3.6 2.2-11.8 2.2-6.9 0-13.8-2.1-6.9-2-11.9-5.2l-6.6 13.1q4.9 3.4 13.4 5.8 8.5 2.4 17.8 2.4z"/>
				</g>
			</g>
		</g>
	</g>
</svg>