<?xml version="1.0" encoding="UTF-8"?>
<svg width="913px" height="208px" viewBox="0 0 913 208" version="1.1" xmlns="http://www.w3.org/2000/svg" xmlns:xlink="http://www.w3.org/1999/xlink">
    <title>Group</title>
    <g id="Page-1" stroke="none" stroke-width="1" fill="none" fill-rule="evenodd">
        <g id="Vector-file" transform="translate(-2301.000000, -804.000000)">
            <g id="Group" transform="translate(2301.467300, 804.455000)">
                <polygon id="Fill-6" fill="#012D98" points="77.5327 153.58878 77.5327 183.545 0.5327 138.20488 0.5327 48.545 25.9653896 63.8786667 25.9653896 123.229124"></polygon>
                <polygon id="Fill-7" fill="#D55500" points="156.5327 46.2100855 156.5327 137.545 130.970944 122.460342 130.970944 61.2947432 79.1450763 30.7127343 27.5327 61.1682471 27.5327 30.9989317 79.1450763 0.545"></polygon>
                <polygon id="Fill-8" fill="#D55500" points="170.5327 160.543044 124.368846 166.545 87.5327 110.545"></polygon>
                <polygon id="Fill-9" fill="#012D98" points="124.5327 165.611218 99.6855941 206.545 87.7797548 110.546009 87.7844756 110.522092 87.5327 108.545"></polygon>
                <polygon id="Fill-10" fill="#D55500" points="77.0351066 54.545 43.5327 73.7938025 43.5327 112.289811 77.0351066 131.545 77.0351066 116.961509 56.2184355 105.001259 56.2184355 81.0887411 77.0351066 69.1284906 97.8469645 81.0887411 97.8469645 104.903865 110.340176 112.399978 110.5327 112.289811 110.5327 73.7938025"></polygon>
                <g id="LinkClicks" transform="translate(210.532700, 35.545000)" fill-rule="nonzero">
                    <path d="M68.5535288,106.384569 L68.5535288,91.2261462 L17.9676588,91.2261462 L17.9676588,9.92187692 L-3.41060513e-13,9.92187692 L-3.41060513e-13,106.384569 L68.5535288,106.384569 Z M89.7111431,20.6705769 C93.0282493,20.6705769 95.7003627,19.6370481 97.7274832,17.5699904 C99.7546036,15.5029327 100.768164,12.9535615 100.768164,9.92187692 C100.768164,7.07393077 99.7315682,4.70829808 97.6583768,2.82497885 C95.5851854,0.941659615 92.9361075,-1.13686838e-13 89.7111431,-1.13686838e-13 C86.4861787,-1.13686838e-13 83.8371008,0.987594231 81.7639094,2.96278269 C79.690718,4.93797115 78.6541223,7.39547308 78.6541223,10.3352885 C78.6541223,13.1832346 79.690718,15.6177692 81.7639094,17.6388923 C83.8371008,19.6600154 86.4861787,20.6705769 89.7111431,20.6705769 Z M98.2803342,106.384569 L98.2803342,32.7973154 L81.0037393,32.7973154 L81.0037393,106.384569 L98.2803342,106.384569 Z M138.096671,106.384569 L138.096671,69.1775308 C138.096671,64.2165923 138.948983,60.1054442 140.653607,56.8440865 C142.358231,53.5827288 144.776954,51.1252269 147.909777,49.4715808 C151.0426,47.8179346 154.636131,46.9911115 158.690372,46.9911115 C164.218883,46.9911115 168.526514,48.5988231 171.613265,51.8142462 C174.700017,55.0296692 176.243393,59.8987385 176.243393,66.4214538 L176.243393,66.4214538 L176.243393,106.384569 L193.519988,106.384569 L193.519988,64.2165923 C193.519988,56.7751846 192.183931,50.6888481 189.511818,45.9575827 C186.839704,41.2263173 183.177066,37.7123192 178.523903,35.4155885 C173.87074,33.1188577 168.59562,31.9704923 162.698542,31.9704923 C156.248614,31.9704923 150.558855,33.2336942 145.629266,35.7600981 C142.515842,37.3557216 139.87104,39.3819343 137.694859,41.8387364 L137.267247,42.3364154 L137.267395,32.7973154 L120.820076,32.7973154 L120.820076,106.384569 L138.096671,106.384569 Z M232.645261,106.384569 L232.643425,86.9902615 L245.493983,74.8734923 L271.068408,106.384569 L292.076747,106.384569 L258.37787,63.6352615 L289.174279,32.7973154 L268.442366,32.7973154 L232.643425,65.8035692 L232.645261,4.13411538 L215.368666,4.13411538 L215.368666,106.384569 L232.645261,106.384569 Z" id="Link" fill="#012D98"></path>
                    <path d="M349.584318,107.762608 C357.600658,107.762608 364.879863,106.384569 371.421934,103.628492 C377.964004,100.872415 383.492515,96.8761038 388.007465,91.6395577 L388.007465,91.6395577 L376.397593,80.61525 C372.896203,84.4737577 368.980175,87.3446712 364.649508,89.2279904 C360.318842,91.1113096 355.619608,92.0529692 350.551807,92.0529692 C345.484006,92.0529692 340.853878,91.2261462 336.661425,89.5725 C332.468971,87.9188538 328.829368,85.5761885 325.742617,82.5445038 C322.655865,79.5128192 320.260177,75.9299192 318.555553,71.7958038 C316.850929,67.6616885 315.998617,63.1141615 315.998617,58.1532231 C315.998617,53.1922846 316.850929,48.6447577 318.555553,44.5106423 C320.260177,40.3765269 322.655865,36.7936269 325.742617,33.7619423 C328.829368,30.7302577 332.468971,28.3875923 336.661425,26.7339462 C340.853878,25.0803 345.484006,24.2534769 350.551807,24.2534769 C355.619608,24.2534769 360.318842,25.1951365 364.649508,27.0784558 C368.980175,28.961775 372.896203,31.7867538 376.397593,35.5533923 L376.397593,35.5533923 L388.007465,24.6668885 C383.492515,19.3384731 377.964004,15.3191942 371.421934,12.6090519 C364.879863,9.89890962 357.646729,8.54383846 349.72253,8.54383846 C342.259041,8.54383846 335.394474,9.76110577 329.128829,12.1956404 C322.863184,14.630175 317.380745,18.0752712 312.681511,22.5309288 C307.982277,26.9865865 304.342674,32.2461 301.762703,38.3094692 C299.182731,44.3728385 297.892745,50.9874231 297.892745,58.1532231 C297.892745,65.3190231 299.182731,71.9336077 301.762703,77.9969769 C304.342674,84.0603462 307.959241,89.3198596 312.612404,93.7755173 C317.265567,98.231175 322.748007,101.676271 329.059723,104.110806 C335.371439,106.54534 342.21297,107.762608 349.584318,107.762608 Z M420.774951,106.384569 L420.774951,4.13411538 L403.498356,4.13411538 L403.498356,106.384569 L420.774951,106.384569 Z M452.022097,20.6705769 C455.339203,20.6705769 458.011316,19.6370481 460.038437,17.5699904 C462.065557,15.5029327 463.079117,12.9535615 463.079117,9.92187692 C463.079117,7.07393077 462.042522,4.70829808 459.96933,2.82497885 C457.896139,0.941659615 455.247061,-2.36118817e-13 452.022097,-2.36118817e-13 C448.797132,-2.36118817e-13 446.148054,0.987594231 444.074863,2.96278269 C442.001672,4.93797115 440.965076,7.39547308 440.965076,10.3352885 C440.965076,13.1832346 442.001672,15.6177692 444.074863,17.6388923 C446.148054,19.6600154 448.797132,20.6705769 452.022097,20.6705769 Z M460.591288,106.384569 L460.591288,32.7973154 L443.314693,32.7973154 L443.314693,106.384569 L460.591288,106.384569 Z M516.993156,107.349196 C524.180219,107.349196 530.514971,105.856321 535.99741,102.870571 C541.47985,99.8848212 545.649268,95.6358692 548.505665,90.1237154 L548.505665,90.1237154 L535.23724,82.4067 C533.025836,85.8977308 530.330687,88.4700692 527.151794,90.1237154 C523.9729,91.7773615 520.540617,92.6041846 516.854943,92.6041846 C512.616418,92.6041846 508.792532,91.6854923 505.383284,89.8481077 C501.974036,88.0107231 499.301923,85.3694827 497.366944,81.9243865 C495.431965,78.4792904 494.464476,74.3681423 494.464476,69.5909423 C494.464476,64.8137423 495.431965,60.7025942 497.366944,57.2574981 C499.301923,53.8124019 501.974036,51.1711615 505.383284,49.3337769 C508.792532,47.4963923 512.616418,46.5777 516.854943,46.5777 C520.540617,46.5777 523.9729,47.4045231 527.151794,49.0581692 C530.330687,50.7118154 533.025836,53.2841538 535.23724,56.7751846 L535.23724,56.7751846 L548.505665,49.0581692 C545.649268,43.4541462 541.47985,39.2051942 535.99741,36.3113135 C530.514971,33.4174327 524.180219,31.9704923 516.993156,31.9704923 C509.253241,31.9704923 502.365639,33.5782038 496.330348,36.7936269 C490.295058,40.00905 485.572788,44.4417404 482.16354,50.0916981 C478.754292,55.7416558 477.049668,62.2414038 477.049668,69.5909423 C477.049668,76.8486115 478.754292,83.3253923 482.16354,89.0212846 C485.572788,94.7171769 490.295058,99.1958019 496.330348,102.45716 C502.365639,105.718517 509.253241,107.349196 516.993156,107.349196 Z M578.785321,106.384569 L578.783585,86.9902615 L591.634143,74.8734923 L617.208469,106.384569 L638.216808,106.384569 L604.51803,63.6331846 L635.31434,32.7973154 L614.582426,32.7973154 L578.783585,65.8035692 L578.785321,4.13411538 L561.508727,4.13411538 L561.508727,106.384569 L578.785321,106.384569 Z M667.528975,107.349196 C674.439613,107.349196 680.382762,106.407537 685.358421,104.524217 C690.334081,102.640898 694.181002,99.9996577 696.899187,96.6004962 C699.617371,93.2013346 700.976463,89.2050231 700.976463,84.6115615 C700.976463,80.4774462 700.147187,77.1242192 698.488633,74.5518808 C696.83008,71.9795423 694.641712,69.9813865 691.923527,68.5574135 C689.205343,67.1334404 686.233769,66.0080423 683.008804,65.1812192 C679.78384,64.3543962 676.53584,63.7342788 673.264805,63.3208673 C669.993769,62.9074558 667.022195,62.3792077 664.350082,61.7361231 C661.677968,61.0930385 659.512635,60.2202808 657.854082,59.11785 C656.195529,58.0154192 655.366252,56.3617731 655.366252,54.1569115 C655.366252,51.7683115 656.633203,49.7931231 659.167103,48.2313462 C661.701004,46.6695692 665.593997,45.8886808 670.846082,45.8886808 C674.347471,45.8886808 677.871897,46.279125 681.419358,47.0600135 C684.966818,47.8409019 688.491244,49.2878423 691.992634,51.4008346 L691.992634,51.4008346 L698.626846,38.3094692 C695.30974,36.2883462 691.117286,34.7265692 686.049485,33.6241385 C680.981684,32.5217077 675.959954,31.9704923 670.984294,31.9704923 C664.350082,31.9704923 658.614252,32.9121519 653.776806,34.7954712 C648.939359,36.6787904 645.184579,39.3429981 642.512466,42.7880942 C639.840352,46.2331904 638.504296,50.2984038 638.504296,54.9837346 C638.504296,59.2097192 639.333572,62.6088808 640.992125,65.1812192 C642.650679,67.7535577 644.816012,69.7976481 647.488125,71.3134904 C650.160238,72.8293327 653.131813,73.9776981 656.402848,74.7585865 C659.673883,75.539475 662.944919,76.1595923 666.215954,76.6189385 C669.486989,77.0782846 672.458564,77.5835654 675.130677,78.1347808 C677.80279,78.6859962 679.968124,79.4898519 681.626677,80.5463481 C683.28523,81.6028442 684.114506,83.1416538 684.114506,85.1627769 C684.114506,87.6432462 682.893627,89.6184346 680.451868,91.0883423 C678.01011,92.55825 674.071046,93.2932038 668.634677,93.2932038 C664.027585,93.2932038 659.420493,92.6041846 654.813401,91.2261462 C650.206309,89.8481077 646.24421,88.1025923 642.927104,85.9896 L642.927104,85.9896 L636.292892,99.0809654 C639.609998,101.377696 644.101913,103.329917 649.768636,104.937629 C655.435359,106.54534 661.355472,107.349196 667.528975,107.349196 Z" id="Clicks" fill="#D55500"></path>
                </g>
            </g>
        </g>
    </g>
</svg>