<?xml version="1.0" encoding="UTF-8"?>
<svg width="440px" height="101px" viewBox="0 0 440 101" version="1.1" xmlns="http://www.w3.org/2000/svg" xmlns:xlink="http://www.w3.org/1999/xlink">
    <title>Group</title>
    <g id="Page-1" stroke="none" stroke-width="1" fill="none" fill-rule="evenodd">
        <g id="Vector-file" transform="translate(-38.000000, -771.000000)">
            <g id="Group" transform="translate(38.967300, 771.455000)">
                <polygon id="Fill-6" fill="#012D98" points="37.0327 74.1216346 37.0327 88.545 0.0327 66.7145717 0.0327 23.545 12.2536028 30.9278765 12.2536028 59.5040228"></polygon>
                <polygon id="Fill-7" fill="#FFAB00" points="75.0327 22.5442383 75.0327 66.545 62.747205 59.2779386 62.747205 29.8112996 37.8386483 15.078361 13.0327 29.7503599 13.0327 15.2162371 37.8386483 0.545"></polygon>
                <polygon id="Fill-8" fill="#FFAB00" points="82.0327 77.6511999 59.7850594 80.545 42.0327 53.545"></polygon>
                <polygon id="Fill-9" fill="#012D98" points="60.0327 79.9134921 47.9449188 99.545 42.1528888 53.5046674 42.1551854 53.4931973 42.0327 52.545"></polygon>
                <polygon id="Fill-10" fill="#FFAB00" points="37.0338494 26.545 21.0327 35.7944246 21.0327 54.2925066 37.0338494 63.545 37.0338494 56.5373487 27.0915587 50.7902153 27.0915587 39.2997847 37.0338494 33.5526513 46.9738413 39.2997847 46.9738413 50.7434158 52.9407482 54.3454437 53.0327 54.2925066 53.0327 35.7944246"></polygon>
                <g id="LinkClicks" transform="translate(101.269600, 17.322800)" fill-rule="nonzero">
                    <path d="M32.9096,51.2222 L32.9096,43.9237 L8.6255,43.9237 L8.6255,4.7772 L-1.42108547e-13,4.7772 L-1.42108547e-13,51.2222 L32.9096,51.2222 Z M43.0664604,9.9525 C44.6588604,9.9525 45.9416271,9.454875 46.9147604,8.459625 C47.8878938,7.464375 48.3744604,6.2369 48.3744604,4.7772 C48.3744604,3.40596667 47.8768354,2.26695833 46.8815854,1.360175 C45.8863354,0.453391667 44.6146271,-2.84217094e-14 43.0664604,-2.84217094e-14 C41.5182938,-2.84217094e-14 40.2465854,0.475508333 39.2513354,1.426525 C38.2560854,2.37754167 37.7584604,3.56078333 37.7584604,4.97625 C37.7584604,6.34748333 38.2560854,7.51966667 39.2513354,8.4928 C40.2465854,9.46593333 41.5182938,9.9525 43.0664604,9.9525 Z M47.1801604,51.2222 L47.1801604,15.7913 L38.8864104,15.7913 L38.8864104,51.2222 L47.1801604,51.2222 Z M66.2942709,51.2222 L66.2942709,33.3077 C66.2942709,30.9191 66.7034292,28.9396583 67.5217459,27.369375 C68.3400625,25.7990917 69.5011875,24.61585 71.0051209,23.81965 C72.5090542,23.02345 74.2341542,22.62535 76.1804209,22.62535 C78.8344209,22.62535 80.9023292,23.3994333 82.3841459,24.9476 C83.8659625,26.4957667 84.6068709,28.8401333 84.6068709,31.9807 L84.6068709,31.9807 L84.6068709,51.2222 L92.9006209,51.2222 L92.9006209,30.9191 C92.9006209,27.3362 92.2592375,24.4057417 90.9764709,22.127725 C89.6937042,19.8497083 87.9354292,18.1577833 85.7016459,17.05195 C83.4678625,15.9461167 80.9355042,15.3932 78.1045709,15.3932 C75.0082375,15.3932 72.2768292,16.0014083 69.9103459,17.217825 C68.4157248,17.9860882 67.1460689,18.9616721 66.101378,20.1445768 L65.8961,20.3842 L65.8961709,15.7913 L58.0005209,15.7913 L58.0005209,51.2222 L66.2942709,51.2222 Z M111.682981,51.2222 L111.6821,41.8842 L117.8511,36.0502 L130.128281,51.2222 L140.213481,51.2222 L124.0361,30.6392 L138.820131,15.7913 L128.867631,15.7913 L111.6821,31.6832 L111.682981,1.9905 L103.389231,1.9905 L103.389231,51.2222 L111.682981,51.2222 Z" id="Link" fill="#012D98"></path>
                    <path d="M167.820392,51.8857 C171.668692,51.8857 175.163125,51.2222 178.303692,49.8952 C181.444258,48.5682 184.098258,46.64405 186.265692,44.12275 L186.265692,44.12275 L180.692292,38.81475 C179.011425,40.67255 177.131508,42.0548417 175.052542,42.961625 C172.973575,43.8684083 170.717675,44.3218 168.284842,44.3218 C165.852008,44.3218 163.629283,43.9237 161.616667,43.1275 C159.60405,42.3313 157.856833,41.20335 156.375017,39.74365 C154.8932,38.28395 153.743133,36.55885 152.924817,34.56835 C152.1065,32.57785 151.697342,30.3883 151.697342,27.9997 C151.697342,25.6111 152.1065,23.42155 152.924817,21.43105 C153.743133,19.44055 154.8932,17.71545 156.375017,16.25575 C157.856833,14.79605 159.60405,13.6681 161.616667,12.8719 C163.629283,12.0757 165.852008,11.6776 168.284842,11.6776 C170.717675,11.6776 172.973575,12.1309917 175.052542,13.037775 C177.131508,13.9445583 179.011425,15.3047333 180.692292,17.1183 L180.692292,17.1183 L186.265692,11.87665 C184.098258,9.31111667 181.444258,7.37590833 178.303692,6.071025 C175.163125,4.76614167 171.690808,4.1137 167.886742,4.1137 C164.303842,4.1137 161.008458,4.69979167 158.000592,5.871975 C154.992725,7.04415833 152.360842,8.70290833 150.104942,10.848225 C147.849042,12.9935417 146.101825,15.5259 144.863292,18.4453 C143.624758,21.3647 143.005492,24.5495 143.005492,27.9997 C143.005492,31.4499 143.624758,34.6347 144.863292,37.5541 C146.101825,40.4735 147.837983,43.0058583 150.071767,45.151175 C152.30555,47.2964917 154.937433,48.9552417 157.967417,50.127425 C160.9974,51.2996083 164.281725,51.8857 167.820392,51.8857 Z M201.995952,51.2222 L201.995952,1.9905 L193.702202,1.9905 L193.702202,51.2222 L201.995952,51.2222 Z M216.996363,9.9525 C218.588763,9.9525 219.871529,9.454875 220.844663,8.459625 C221.817796,7.464375 222.304363,6.2369 222.304363,4.7772 C222.304363,3.40596667 221.806738,2.26695833 220.811488,1.360175 C219.816238,0.453391667 218.544529,-8.52651283e-14 216.996363,-8.52651283e-14 C215.448196,-8.52651283e-14 214.176488,0.475508333 213.181238,1.426525 C212.185988,2.37754167 211.688363,3.56078333 211.688363,4.97625 C211.688363,6.34748333 212.185988,7.51966667 213.181238,8.4928 C214.176488,9.46593333 215.448196,9.9525 216.996363,9.9525 Z M221.110063,51.2222 L221.110063,15.7913 L212.816313,15.7913 L212.816313,51.2222 L221.110063,51.2222 Z M248.186173,51.68665 C251.636373,51.68665 254.677415,50.9678583 257.309298,49.530275 C259.941181,48.0926917 261.94274,46.0469 263.313973,43.3929 L263.313973,43.3929 L256.944373,39.6773 C255.882773,41.3581667 254.588948,42.5967 253.062898,43.3929 C251.536848,44.1891 249.889156,44.5872 248.119823,44.5872 C246.08509,44.5872 244.249406,44.1448667 242.612773,43.2602 C240.97614,42.3755333 239.693373,41.103825 238.764473,39.445075 C237.835573,37.786325 237.371123,35.8068833 237.371123,33.50675 C237.371123,31.2066167 237.835573,29.227175 238.764473,27.568425 C239.693373,25.909675 240.97614,24.6379667 242.612773,23.7533 C244.249406,22.8686333 246.08509,22.4263 248.119823,22.4263 C249.889156,22.4263 251.536848,22.8244 253.062898,23.6206 C254.588948,24.4168 255.882773,25.6553333 256.944373,27.3362 L256.944373,27.3362 L263.313973,23.6206 C261.94274,20.9223667 259.941181,18.876575 257.309298,17.483225 C254.677415,16.089875 251.636373,15.3932 248.186173,15.3932 C244.470573,15.3932 241.164131,16.1672833 238.266848,17.71545 C235.369565,19.2636167 233.102606,21.397875 231.465973,24.118225 C229.82934,26.838575 229.011023,29.9680833 229.011023,33.50675 C229.011023,37.0011833 229.82934,40.1196333 231.465973,42.8621 C233.102606,45.6045667 235.369565,47.7609417 238.266848,49.331225 C241.164131,50.9015083 244.470573,51.68665 248.186173,51.68665 Z M277.849934,51.2222 L277.8491,41.8842 L284.0181,36.0502 L296.295234,51.2222 L306.380434,51.2222 L290.2031,30.6382 L304.987084,15.7913 L295.034584,15.7913 L277.8491,31.6832 L277.849934,1.9905 L269.556184,1.9905 L269.556184,51.2222 L277.849934,51.2222 Z M320.451944,51.68665 C323.769444,51.68665 326.622494,51.2332583 329.011094,50.326475 C331.399694,49.4196917 333.246436,48.1479833 334.551319,46.51135 C335.856202,44.8747167 336.508644,42.9505667 336.508644,40.7389 C336.508644,38.7484 336.110544,37.1338833 335.314344,35.89535 C334.518144,34.6568167 333.467602,33.6947417 332.162719,33.009125 C330.857836,32.3235083 329.431311,31.78165 327.883144,31.38355 C326.334977,30.98545 324.775752,30.686875 323.205469,30.487825 C321.635186,30.288775 320.208661,30.0344333 318.925894,29.7248 C317.643127,29.4151667 316.603644,28.99495 315.807444,28.46415 C315.011244,27.93335 314.613144,27.13715 314.613144,26.07555 C314.613144,24.9254833 315.221352,23.9744667 316.437769,23.2225 C317.654186,22.4705333 319.523044,22.09455 322.044344,22.09455 C323.725211,22.09455 325.417136,22.2825417 327.120119,22.658525 C328.823102,23.0345083 330.515027,23.7311833 332.195894,24.74855 L332.195894,24.74855 L335.380694,18.4453 C333.788294,17.4721667 331.775677,16.7202 329.342844,16.1894 C326.910011,15.6586 324.499294,15.3932 322.110694,15.3932 C318.925894,15.3932 316.172369,15.8465917 313.850119,16.753375 C311.527869,17.6601583 309.725361,18.942925 308.442594,20.601675 C307.159827,22.260425 306.518444,24.21775 306.518444,26.47365 C306.518444,28.5083833 306.916544,30.1450167 307.712744,31.38355 C308.508944,32.6220833 309.548427,33.606275 310.831194,34.336125 C312.113961,35.065975 313.540486,35.6188917 315.110769,35.994875 C316.681052,36.3708583 318.251336,36.6694333 319.821619,36.8906 C321.391902,37.1117667 322.818427,37.35505 324.101194,37.62045 C325.383961,37.88585 326.423444,38.2728917 327.219644,38.781575 C328.015844,39.2902583 328.413944,40.0311667 328.413944,41.0043 C328.413944,42.1986 327.827852,43.1496167 326.655669,43.85735 C325.483486,44.5650833 323.592511,44.91895 320.982744,44.91895 C318.771077,44.91895 316.559411,44.5872 314.347744,43.9237 C312.136077,43.2602 310.234044,42.4197667 308.641644,41.4024 L308.641644,41.4024 L305.456844,47.70565 C307.049244,48.8114833 309.205619,49.7514417 311.925969,50.525525 C314.646319,51.2996083 317.488311,51.68665 320.451944,51.68665 Z" id="Clicks" fill="#FFAB00"></path>
                </g>
            </g>
        </g>
    </g>
</svg>